<svg viewBox="0 0 10 10" xmlns="http://www.w3.org/2000/svg"><path d="m7.6 6.61a.71.71 0 0 0 -1-.07l-.07.07-.74.74a.14.14 0 0 1 -.2 0c-.16-.09-.33-.16-.48-.25a7.87 7.87 0 0 1 -1.85-1.65 4.48 4.48 0 0 1 -.66-1.06.15.15 0 0 1 0-.2l.73-.73a.71.71 0 0 0 .1-1 .94.94 0 0 0 -.1-.1c-.2-.2-.39-.38-.58-.58s-.4-.4-.6-.6a.71.71 0 0 0 -1-.06l-.06.06c-.25.25-.49.5-.74.74a1.15 1.15 0 0 0 -.35.82 3.38 3.38 0 0 0 .27 1.48 9.16 9.16 0 0 0 1.6 2.67 9.86 9.86 0 0 0 3.28 2.56 4.66 4.66 0 0 0 1.85.55 1.33 1.33 0 0 0 1.14-.43c.21-.24.45-.46.68-.68a.71.71 0 0 0 .08-1 .6.6 0 0 0 -.08-.08zm-.4-1.61.8-.18a3.45 3.45 0 0 0 -2.94-2.82l-.06.77a2.67 2.67 0 0 1 1.51.76 2.58 2.58 0 0 1 .69 1.47zm1.21-3.38a5.7 5.7 0 0 0 -3.25-1.62l-.11.77a4.93 4.93 0 0 1 4.18 4.05l.77-.13a5.67 5.67 0 0 0 -1.59-3.07z" fill="#d1cfcf" fill-rule="evenodd" opacity=".49"/></svg>
