<svg id="OBJECTS" xmlns="http://www.w3.org/2000/svg" viewBox="0 0 79 66"><defs><style>.cls-1{fill:#e0b47b;}</style></defs><title>Artboard 1</title><path class="cls-1" d="M57.8,39.12c3.27,1.27,6.51,2.59,9.75,3.91l9.72,4,1.49.61-1.49.73Q68,52.84,58.73,57.15l-9.32,4.28-9.35,4.22-.56.25-.56-.25L29.6,61.43c-3.12-1.39-6.21-2.86-9.32-4.28-6.21-2.86-12.38-5.81-18.53-8.8L.24,47.62,1.75,47l8.92-3.63c3-1.2,6-2.4,9-3.55-2.86,1.47-5.74,2.89-8.63,4.29L2.34,48.35V47q9.51,3.87,18.93,7.91c6.29,2.67,12.53,5.47,18.79,8.22H38.94L48.33,59c3.12-1.39,6.27-2.72,9.41-4.07Q67.16,50.88,76.67,47v1.34l-9.45-4.58C64.07,42.25,60.93,40.71,57.8,39.12Z"/><polygon class="cls-1" points="45.05 4.19 45.05 59.54 39.5 62.82 39.5 0.1 45.05 4.19"/><polygon class="cls-1" points="62.19 16.82 62.19 49.41 56.63 52.69 56.63 12.73 62.19 16.82"/><polygon class="cls-1" points="53.6 10.5 53.6 54.48 48.07 57.75 48.07 6.42 53.6 10.5"/><polygon class="cls-1" points="33.86 4.26 33.86 59.99 30.82 58.1 30.82 6.5 33.86 4.26"/><polygon class="cls-1" points="26.85 9.43 26.85 55.64 23.84 53.77 23.84 11.65 26.85 9.43"/><polygon class="cls-1" points="19.86 14.59 19.86 51.29 16.83 49.41 16.83 16.82 19.86 14.59"/></svg>