<svg width="109" height="66" xmlns="http://www.w3.org/2000/svg" xmlns:xlink="http://www.w3.org/1999/xlink"><svg width="13" height="10" id="L1VzZXJzL2t1a2tvbWFoL3Byb2plY3RzL3RvaXZlL3NyYy9pbWFnZXMvc3ByaXRlLW1haWwuc3Zn" x="95" y="29" xmlns="http://www.w3.org/2000/svg"><path d="M13 8.33a1.59 1.59 0 0 1-.21.8l-4.1-4.71L12.75.78a1.72 1.72 0 0 1 .25.88zm-6.5-3L12.15.21a1.55 1.55 0 0 0-.78-.21H1.62a1.49 1.49 0 0 0-.77.21zM8.07 5l-1.3 1.15a.45.45 0 0 1-.27.1.43.43 0 0 1-.27-.1L4.92 5 .77 9.74a1.52 1.52 0 0 0 .85.26h9.75a1.55 1.55 0 0 0 .86-.26zM.25.78a1.73 1.73 0 0 0-.25.89v6.66a1.59 1.59 0 0 0 .21.8l4.1-4.71z" fill="#dfb47a" fill-rule="evenodd"/></svg><svg id="L1VzZXJzL2t1a2tvbWFoL3Byb2plY3RzL3RvaXZlL3NyYy9pbWFnZXMvc3ByaXRlLWNoZWNrLnN2Zw==" data-name="Слой 1" width="30" height="29" x="79" xmlns="http://www.w3.org/2000/svg"><path d="M8.39 13.36l4.07 7.82S19.07 5.3 29.49 0c-.25 3.78-1.27 7.06.51 11.1-4.58 1-14 12.35-17 17.9-4.36-5.3-9.44-9.33-13-10.59z" fill="#fff" fill-rule="evenodd"/></svg><svg width="16" height="12" id="L1VzZXJzL2t1a2tvbWFoL3Byb2plY3RzL3RvaXZlL3NyYy9pbWFnZXMvc3ByaXRlLWNoZWNrYm94LWNoZWNrLnN2Zw==" x="79" y="29" xmlns="http://www.w3.org/2000/svg"><path d="M15.37 1.33l-9 10L6 11l-.35.35-5-5 .7-.7L6 10.27l8.63-9.6z" fill="#e1e3e6" fill-rule="evenodd"/></svg><svg id="L1VzZXJzL2t1a2tvbWFoL3Byb2plY3RzL3RvaXZlL3NyYy9pbWFnZXMvc3ByaXRlLWxvZ28uc3Zn" width="79" height="66" xmlns="http://www.w3.org/2000/svg"><defs><style>.dcls-1{fill:#e0b47b}</style></defs><path class="dcls-1" d="M57.8 39.12c3.27 1.27 6.51 2.59 9.75 3.91l9.72 4 1.49.61-1.49.73Q68 52.84 58.73 57.15l-9.32 4.28-9.35 4.22-.56.25-.56-.25-9.34-4.22c-3.12-1.39-6.21-2.86-9.32-4.28-6.21-2.86-12.38-5.81-18.53-8.8l-1.51-.73L1.75 47l8.92-3.63c3-1.2 6-2.4 9-3.55-2.86 1.47-5.74 2.89-8.63 4.29l-8.7 4.24V47q9.51 3.87 18.93 7.91c6.29 2.67 12.53 5.47 18.79 8.22h-1.12L48.33 59c3.12-1.39 6.27-2.72 9.41-4.07q9.42-4.05 18.93-7.93v1.34l-9.45-4.58c-3.15-1.51-6.29-3.05-9.42-4.64z"/><path class="dcls-1" d="M45.05 4.19v55.35l-5.55 3.28V.1l5.55 4.09zm17.14 12.63v32.59l-5.56 3.28V12.73l5.56 4.09zM53.6 10.5v43.98l-5.53 3.27V6.42l5.53 4.08zM33.86 4.26v55.73l-3.04-1.89V6.5l3.04-2.24zm-7.01 5.17v46.21l-3.01-1.87V11.65l3.01-2.22zm-6.99 5.16v36.7l-3.03-1.88V16.82l3.03-2.23z"/></svg><svg width="10" height="10" id="L1VzZXJzL2t1a2tvbWFoL3Byb2plY3RzL3RvaXZlL3NyYy9pbWFnZXMvc3ByaXRlLXBob25lLnN2Zw==" x="79" y="41" xmlns="http://www.w3.org/2000/svg"><path d="M7.6 6.61a.71.71 0 0 0-1-.07l-.07.07-.74.74a.14.14 0 0 1-.2 0c-.16-.09-.33-.16-.48-.25a7.87 7.87 0 0 1-1.85-1.65 4.48 4.48 0 0 1-.66-1.06.15.15 0 0 1 0-.2l.73-.73a.71.71 0 0 0 .1-1 .94.94 0 0 0-.1-.1c-.2-.2-.39-.38-.58-.58s-.4-.4-.6-.6a.71.71 0 0 0-1-.06l-.06.06c-.25.25-.49.5-.74.74a1.15 1.15 0 0 0-.35.82 3.38 3.38 0 0 0 .27 1.48 9.16 9.16 0 0 0 1.6 2.67 9.86 9.86 0 0 0 3.28 2.56A4.66 4.66 0 0 0 7 10a1.33 1.33 0 0 0 1.14-.43c.21-.24.45-.46.68-.68a.71.71 0 0 0 .08-1 .6.6 0 0 0-.08-.08zM7.2 5l.8-.18A3.45 3.45 0 0 0 5.06 2L5 2.77a2.67 2.67 0 0 1 1.51.76A2.58 2.58 0 0 1 7.2 5zm1.21-3.38A5.7 5.7 0 0 0 5.16 0l-.11.77a4.93 4.93 0 0 1 4.18 4.05l.77-.13a5.67 5.67 0 0 0-1.59-3.07z" fill="#dfb47a" fill-rule="evenodd"/></svg></svg>