<svg xmlns="http://www.w3.org/2000/svg" viewBox="0 0 17 18"><path d="M16.72 11a.29.29 0 0 1-.29-.28.27.27 0 0 0-.28-.28h-.23l.66 3.91a2.57 2.57 0 0 1-.33 1.65l-.38.63v1a.32.32 0 0 1-.32.32H1.45a.32.32 0 0 1-.32-.32v-1L.75 16a2.52 2.52 0 0 1-.33-1.72l.66-3.91H.85a.27.27 0 0 0-.28.28.29.29 0 0 1-.29.35.29.29 0 0 1-.28-.31.85.85 0 0 1 .85-.85h15.3a.85.85 0 0 1 .85.85.29.29 0 0 1-.28.31zm-15 6.47H15.3v-.56H1.7zm0-7l-.68 4a2 2 0 0 0 .26 1.33l.34.56h.75L2.17 16a2.52 2.52 0 0 1-.33-1.72l.66-3.91zm1.41 0l-.67 4a1.89 1.89 0 0 0 .26 1.33l.33.56h.84l-.2-.49a2.68 2.68 0 0 1-.17-1.22l.47-4.19zm1.43 0L4 14.66a1.93 1.93 0 0 0 .13.95l.28.7h.85l-.19-.65a2.76 2.76 0 0 1-.09-.9l.35-4.35zm1.43 0l-.42 4.33a1.84 1.84 0 0 0 .08.7l.23.81h.9l-.06-1a1.27 1.27 0 0 1 0-.2l.09-4.68zm2.29 0h-.92l-.08 4.63v.16l.07 1h.87zm1.42 0h-.92v5.9h.87l.06-1.06v-.14zm1.43 0h-.93l.08 4.69a1.09 1.09 0 0 1 0 .18v1h.9l.23-.81a1.81 1.81 0 0 0 .07-.69zm1.43 0h-.86l.3 4.29a2.67 2.67 0 0 1-.09.89l-.19.66h.85l.28-.7a1.93 1.93 0 0 0 .13-.95zm.57 0l.46 4.19a2.55 2.55 0 0 1-.16 1.22l-.2.49H14l.33-.56a1.89 1.89 0 0 0 .26-1.33l-.67-4zm2.27 0h-.9l.66 3.91a2.52 2.52 0 0 1-.33 1.62l-.16.27h.75l.34-.56a2 2 0 0 0 .24-1.29zM4.25 9.28A.28.28 0 0 1 4 9V1.41a.28.28 0 0 1 .28-.29h8.5a.28.28 0 0 1 .28.29V9a.28.28 0 0 1-.56 0V4.78H8.78V9a.28.28 0 0 1-.56 0V1.69H4.53v2.53h2.84a.28.28 0 0 1 0 .56H4.53V9a.28.28 0 0 1-.28.28zm4.53-5.06h3.69V1.69H8.78zm5.1 5.06A.29.29 0 0 1 13.6 9V.56H3.4V9a.29.29 0 0 1-.57 0V.56A.57.57 0 0 1 3.4 0h10.2a.57.57 0 0 1 .57.56V9a.29.29 0 0 1-.29.28z"/></svg>