<svg viewBox="0 0 801 801" xmlns="http://www.w3.org/2000/svg"><path d="m739.54 386a392.6 392.6 0 0 0 -110.1-212.32c-61.29-61.11-138.91-99.91-224.53-111.9l8.67-61.78c99.1 13.82 188.88 58.62 259.83 129.56 67.29 67.44 111.43 152.37 127.59 245.96zm-177.54-148a274.59 274.59 0 0 1 76.79 148.21l-61.46 10.49a213.2 213.2 0 0 0 -180.56-175l8.66-61.78a273.2 273.2 0 0 1 156.57 78.08zm-300.16 198.47c42.64 52.29 90.77 98.75 148.24 134.89 12.32 7.66 26 13.32 38.81 20.31 6.49 3.67 11 2.5 16.32-3 19.49-20 39.31-39.64 59.13-59.29 26-25.81 58.63-25.81 84.78 0q47.71 47.46 95.27 95.09c26.49 26.64 26.32 59.29-.33 86.26-18 18.15-37.14 35.47-54.13 54.46-24.82 27.81-55.8 36.81-91.45 34.81-51.8-2.83-99.43-20-145.4-42.3-102.08-49.62-189.39-118.4-262.51-205.33-54.13-64.28-98.77-134.37-128.08-213.32-14.33-38.13-24.49-77.27-21.33-118.73 2-25.48 11.5-47.3 30.32-65.12 20.32-19.31 39.52-39.46 59.46-59.11 26-25.65 58.63-25.65 84.78-.17 16.16 15.82 32 32 48 48 15.49 15.65 31 31 46.47 46.63 27.32 27.48 27.32 59.45.17 86.76-19.49 19.65-38.81 39.3-58.63 58.45-5.16 5.16-5.66 9.33-3 15.65 13.13 31.27 31.95 59.08 53.11 85.06z" fill-rule="evenodd"/></svg>