<svg viewBox="0 0 7 11" xmlns="http://www.w3.org/2000/svg"><path d="m4.31 7.25a2.53 2.53 0 0 1 .14-.86 1.76 1.76 0 0 1 .47-.66l.78-.73a3.67 3.67 0 0 0 .73-1 2.35 2.35 0 0 0 .22-1 2.48 2.48 0 0 0 -.84-2 3.54 3.54 0 0 0 -2.36-.69 3.44 3.44 0 0 0 -2.38.76 2.78 2.78 0 0 0 -.86 2.13h2.31a1.27 1.27 0 0 1 .27-.81.83.83 0 0 1 .66-.3c.6 0 .89.34.89 1a1.28 1.28 0 0 1 -.26.77 4.64 4.64 0 0 1 -.77.78 2.44 2.44 0 0 0 -.73 1 4.47 4.47 0 0 0 -.23 1.58zm-1.87 2.91a1.35 1.35 0 0 0 .91.32 1.35 1.35 0 0 0 .91-.32 1.13 1.13 0 0 0 0-1.67 1.35 1.35 0 0 0 -.91-.32 1.35 1.35 0 0 0 -.91.32 1.13 1.13 0 0 0 0 1.67z" fill-rule="evenodd"/></svg>