<svg viewBox="0 0 24 24" xmlns="http://www.w3.org/2000/svg"><path d="m12 24a12 12 0 1 1 12-12 12 12 0 0 1 -12 12zm0-22.91a10.91 10.91 0 1 0 10.91 10.91 10.92 10.92 0 0 0 -10.91-10.91zm0 20.78a9.87 9.87 0 1 1 9.87-9.87 9.88 9.88 0 0 1 -9.87 9.87zm0-19.42a9.55 9.55 0 1 0 9.55 9.55 9.57 9.57 0 0 0 -9.55-9.55zm1.43 10.17h-2.15v.24h-1.09v-.24h-1.13v-1.31h1.13v-3.7h-1.13v-1.31h4.37a3.16 3.16 0 0 1 0 6.32zm0-5h-2.15v3.7h2.15a1.85 1.85 0 0 0 0-3.7zm1.57 6.77h-5.94v-1.31h5.94zm-4.76.21h1.09v1.21h1v1.09h-3v-1.09h1z" fill="#fff" fill-rule="evenodd"/></svg>