<svg viewBox="0 0 25 24" xmlns="http://www.w3.org/2000/svg"><path d="m23.66 3.4-3.06-3.07a1.17 1.17 0 0 0 -1.6 0l-5.8 5.78a.37.37 0 0 0 .52.52l5.78-5.77a.39.39 0 0 1 .28-.12.38.38 0 0 1 .29.12l3.07 3.06a.41.41 0 0 1 0 .58l-.75.75-2-2a.36.36 0 0 0 -.52 0 .37.37 0 0 0 0 .52l2 2-.87.87-.86-.87a.37.37 0 0 0 -.53 0 .37.37 0 0 0 0 .52l.87.87-.86.84-.87-.87a.37.37 0 0 0 -.52 0 .37.37 0 0 0 0 .53l.86.86-.86.86-2-2a.37.37 0 0 0 -.52 0 .36.36 0 0 0 0 .52l2 2-.86.86-.85-.84a.37.37 0 0 0 -.52 0 .36.36 0 0 0 0 .52l.87.87-.75.69-3.6-3.6.67-.68a.37.37 0 1 0 -.52-.52l-.68.68-6.87-6.88a2.51 2.51 0 0 0 -3.6 0 2.51 2.51 0 0 0 0 3.6l6.83 6.83-7.5 7.57a1.16 1.16 0 0 0 0 1.62l3.07 3.04a1.14 1.14 0 0 0 .81.34 1.11 1.11 0 0 0 .79-.34l7.54-7.54.54.54a.37.37 0 0 0 .52-.52l-.74-.74a.18.18 0 0 0 -.05-.07l-.06-.05-8-8 1-1 .61.61a.34.34 0 0 0 .25.11.33.33 0 0 0 .26-.11.36.36 0 0 0 0-.52l-.61-.61 1-1 3.92 3.92 4.13 4.13 5.5 5.5-1 1-5.55-5.54-2.21-2.22-3.86-3.88a.37.37 0 0 0 -.52.52l11.68 11.69-1 1-3.52-3.52a.39.39 0 0 0 -.53 0 .37.37 0 0 0 0 .52l3.79 3.79a.41.41 0 0 0 .13.08l4.47 1.74a.78.78 0 0 0 .22 0 .56.56 0 0 0 .42-.18.59.59 0 0 0 .14-.64l-1.74-4.47a.41.41 0 0 0 -.08-.13l-5.54-5.54 7.55-7.53a1.14 1.14 0 0 0 0-1.6zm-11.66 12.2-.73.73-.86-.87a.37.37 0 0 0 -.53 0 .37.37 0 0 0 0 .52l.87.87-.86.86-2-2a.37.37 0 0 0 -.53 0 .37.37 0 0 0 0 .52l2 2-.85.86-.87-.86a.37.37 0 0 0 -.53 0 .37.37 0 0 0 0 .52l.87.87-.86.86-.87-.87a.37.37 0 0 0 -.52 0 .37.37 0 0 0 0 .53l.87.86-.86.86-2-2a.37.37 0 0 0 -.52 0 .36.36 0 0 0 0 .52l2 2-.75.75a.4.4 0 0 1 -.29.12.38.38 0 0 1 -.28-.12l-3.04-3.06a.4.4 0 0 1 0-.57l7.54-7.5zm-10.43-11.52a1.77 1.77 0 0 1 2.51-2.51l1.17 1.17-2.51 2.51zm3.9 1.39-1.25 1.26-1-1 2.55-2.47 1 1zm17.2 17.2-3.67-1.42 2.25-2.25z" fill="#fff" fill-rule="evenodd"/></svg>
